<svg width="250" height="192" viewBox="0 0 250 192" fill="none" xmlns="http://www.w3.org/2000/svg">
<mask id="mask0_234_11" style="mask-type:luminance" maskUnits="userSpaceOnUse" x="0" y="0" width="250" height="193">
<path d="M249.49 0H0V192.01H249.49V0Z" fill="white"/>
</mask>
<g mask="url(#mask0_234_11)">
<path d="M149.379 10.25C163.329 9.4 178.209 8.83 189.669 8.83C203.619 8.83 222.519 9.68001 239.259 10.82V0C222.519 1.14 203.619 1.42001 189.669 1.42001C175.719 1.42001 156.819 1.14 140.079 0C138.529 15.09 132.769 53.8 132.279 56.89C137.719 56.89 136.089 56.97 140.889 56.97C141.549 52 146.589 22.5 149.379 10.25Z" fill="#1D1D1B"/>
<path d="M0.000244141 1V11.82C19.5302 10.11 40.9102 10.11 57.3402 10.11H102.28L78.3102 56.88H88.1402C95.5002 42.71 106.66 22.97 114.67 8.40001V1C94.8302 2.71 73.7602 2.71001 57.3302 2.71001C40.9002 2.71001 19.5202 2.71 -0.00976562 1" fill="#1D1D1B"/>
<path d="M249.49 133.35C249.49 98.6102 223.45 74.9702 185.02 74.9702C181.17 74.9702 173.52 75.6602 168.78 76.2702V83.6702C173.6 83.0302 181.09 82.3702 185.02 82.3702C217.56 82.3702 237.71 101.16 237.71 133.35C237.71 165.54 217.56 184.61 185.02 184.61C155.89 184.61 137.6 168.95 133.88 142.18L122.41 143.89C126.75 172.94 150.93 192.02 185.02 192.02C223.45 192.02 249.49 168.38 249.49 133.36" fill="#1D1D1B"/>
<path d="M12.7405 190.07L26.5005 190.29C33.7405 173.18 47.7505 142.67 55.3405 125.75H45.1905C36.9405 142.45 21.2805 173.45 12.7305 190.07" fill="#1D1D1B"/>
<path d="M142.55 116.97C152.17 116.97 158.67 111.46 158.67 102.19C158.67 94.13 152.31 89.39 144.95 87.2C138.09 85.08 135.26 83.66 135.26 79.42C135.26 75.96 138.09 73.48 141.91 73.48C145.73 73.48 148.63 75.95 148.98 80.55H157.96C157.18 71.22 151.24 65.77 141.91 65.77C132.58 65.77 126.14 71.57 126.14 80.05C126.14 88.53 131.94 92.49 139.22 94.54C146.36 96.59 149.47 98.22 149.47 102.95C149.47 106.56 146.85 109.24 142.61 109.24C138.37 109.24 134.97 106.41 134.48 101.11H125.43C126.14 111.08 132.57 116.95 142.54 116.95M108.9 104.24L95.6797 72.28C93.9097 67.9 90.9397 66.13 87.5497 66.13C84.1597 66.13 80.5497 68.82 80.5497 73.41V116.11H89.1797V78.14L102.4 109.74C104.66 115.11 107.49 116.6 110.81 116.6C114.13 116.6 117.46 114.13 117.46 109.67V66.61H108.9V104.22V104.24ZM53.3297 75.19L59.6897 98.52H46.8197L53.3197 75.19H53.3297ZM74.1097 116.12L62.0897 74.69C60.5297 69.32 58.4097 66.21 53.6797 66.21C48.5897 66.21 46.6797 69.39 45.0497 74.83L32.6797 116.12H41.9397L44.6997 106.29H61.7397L64.4297 116.12H74.1197H74.1097Z" fill="#1D1D1B"/>
</g>
</svg>
