<svg width="187" height="500" viewBox="0 0 187 500" fill="#0f172b" xmlns="http://www.w3.org/2000/svg">
<path d="M65.1118 61.3236C70.7147 61.3236 76.2407 59.0147 76.2407 53.5811C76.2407 48.1475 70.7147 45.8385 65.1118 45.8385C59.5089 45.8385 54.0137 48.1321 54.0137 53.5811C54.0137 59.0301 59.4781 61.3236 65.1118 61.3236ZM65.1118 48.209C70.3607 48.209 74.0549 50.0869 74.0549 53.5811C74.0549 57.0752 70.3607 58.9992 65.1118 58.9992C59.8629 58.9992 56.1994 57.0906 56.1994 53.5811C56.1994 50.0715 59.8629 48.209 65.1118 48.209ZM69.1908 66.2492C72.2078 66.2492 74.0549 68.6197 74.0549 71.4058C74.0549 73.6839 72.9159 75.3156 71.3151 76.5624L72.9467 78.2248C74.9477 76.5624 76.2407 74.3304 76.2407 71.5289C76.2407 66.7264 72.9313 63.9095 69.2063 63.9095C64.6192 63.9095 62.2334 67.2189 62.2334 70.8208C62.2334 72.8219 63.003 74.4536 63.865 75.2232L56.615 74.8845V65.5104H54.3985V77.0087L66.805 77.5321V75.4233C65.5736 74.746 64.4345 73.022 64.4345 71.1441C64.4345 68.435 66.1277 66.2492 69.2063 66.2492M66.0815 89.3537C66.0815 91.6318 64.296 94.0639 61.1559 94.0639C57.7079 94.0639 56.1686 91.8166 56.1686 89.4769C56.1686 86.7677 58.3852 84.6743 61.3714 84.6743C64.0497 84.6743 66.0815 86.7062 66.0815 89.3537ZM54.0137 89.3537C54.0137 92.8017 56.5842 96.3882 61.1713 96.3882C65.7583 96.3882 68.2981 92.9556 68.2981 89.3537C68.2981 87.2911 67.3437 84.9206 65.0502 83.6892C70.3915 83.4737 74.0549 85.6903 74.0549 89.5692C74.0549 91.4779 73.0698 92.9556 71.746 93.8792L73.47 95.48C74.9785 94.2485 76.2407 92.2629 76.2407 89.5845C76.2407 84.2279 71.8846 81.5342 65.3273 81.5342C58.77 81.5342 54.0137 84.6897 54.0137 89.3691M73.6855 111.719H75.8867V98.6971H73.6855V103.884H54.3831V105.885C56.4457 106.901 57.2153 109.549 57.3077 111.719H59.3857C59.3857 109.595 58.8008 107.455 57.8464 106.255H73.6701V111.719H73.6855Z" />
<path d="M32.7243 34.5415C33.1861 31.9247 34.3252 30.016 36.6033 30.016C39.0969 30.016 40.4515 32.3557 40.4515 35.2803C40.4515 38.759 38.8506 40.8832 37.0343 42.1916L38.6967 43.7924C40.944 42.1916 42.6218 39.2208 42.6218 35.5573C42.6218 30.724 39.9897 27.6917 36.5725 27.6917C33.1553 27.6917 31.0619 30.2007 30.4308 34.2336L30.0614 36.3578C29.6304 39.0053 28.6145 40.9448 26.2748 40.9448C24.089 40.9448 22.5805 38.8206 22.5805 36.0191C22.5805 33.0021 23.9659 31.1858 25.4128 30.0006L23.6888 28.4305C21.8417 30.1237 20.4102 32.4172 20.4102 35.8344C20.4102 39.5902 22.5652 43.2691 26.3671 43.2691C29.9383 43.2691 31.7084 40.3445 32.2626 37.189L32.7243 34.5415ZM42.2832 50.0881V47.7637H20.7796V50.0881H42.2832ZM33.848 57.3534C37.4961 57.3534 40.4515 59.3545 40.4515 63.1718C40.4515 66.9892 37.5114 68.9903 33.8788 68.9903H20.7796V71.3454H33.848C38.8506 71.3454 42.6218 68.3746 42.6218 63.1718C42.6218 57.9691 38.8506 54.9983 33.848 54.9983H20.7796V57.3534H33.848ZM22.9807 81.7354C22.9807 78.5953 24.6124 76.5327 27.5832 76.5327C30.7079 76.5327 32.1856 78.6569 32.1856 81.7354V87.246H22.9961V81.7354H22.9807ZM34.3559 82.0587C34.3559 77.2254 31.7238 74.193 27.5832 74.193C23.4425 74.193 20.7796 77.2254 20.7796 82.0587V89.555H42.2832V87.2306H34.3559V82.0587ZM42.2832 108.026V93.9264H40.082V105.702H32.4165V94.2651H30.2153V105.702H22.9807V93.9264H20.7796V108.026H42.2832ZM22.9807 123.388C22.9807 118.755 25.1973 114.414 31.3852 114.414C37.573 114.414 40.0666 118.755 40.0666 123.357V127.175H22.9807V123.388ZM42.2832 129.499V123.665C42.2832 117.847 39.5587 111.982 31.3852 111.982C23.2116 111.982 20.7642 117.847 20.7642 123.665V129.499H42.2678H42.2832Z" />
<path d="M137.933 450.128C137.933 441.339 131.668 436.213 122.925 436.213H99.082V445.819H124.126C126.912 445.819 129.144 447.019 129.144 450.128C129.144 453.238 126.912 454.438 124.126 454.438H99.082V464.043H122.925C131.653 464.043 137.933 458.918 137.933 450.128Z" />
<path d="M68.6976 202.859C68.6976 216.282 58.1382 225.471 44.9621 225.471C31.7859 225.471 21.2265 216.282 21.2265 202.859C21.2265 189.437 31.7859 180.247 44.9621 180.247C58.1382 180.247 68.6976 189.437 68.6976 202.859ZM89.9549 202.859C89.9549 177.138 69.8213 156.512 44.9775 156.512C20.1337 156.512 0 177.261 0 202.859C0 228.457 20.1337 249.207 44.9775 249.207C69.8213 249.207 89.9549 228.581 89.9549 202.859ZM88.4618 250.038H68.5899V275.636H1.49309V297.509H67.343C82.8743 297.509 88.4618 292.414 88.4618 276.883V250.053V250.038ZM21.3651 344.241V334.929C21.3651 329.587 24.7207 326.478 29.1846 326.478C33.6484 326.478 37.512 329.587 37.512 334.929V344.241H21.3651ZM88.4618 344.241H57.1531V332.681C57.1531 316.026 44.3618 304.113 29.3231 304.113C14.2844 304.113 1.49309 314.426 1.49309 332.189V366.114H88.4618V344.241ZM43.2227 396.053L1.47771 371.702V396.299L23.9664 408.352L1.47771 420.281V445.125L44.5926 421.389L88.4465 446.372V421.528L63.7258 408.86L88.4465 396.684V371.456L43.2227 396.053ZM88.4618 450.174H68.5899V478.127H54.1823V452.159H34.6797V478.127H21.3805V450.174H1.50848V500H88.4772V450.174H88.4618Z" />
<path d="M107.826 490.395V489.625C107.826 483.36 111.104 478.773 118.185 478.773C125.265 478.773 128.544 483.407 128.544 489.733V490.38H107.81L107.826 490.395ZM137.287 490.672C137.287 475.618 128.837 468.737 118.2 468.737C107.564 468.737 99.1133 475.618 99.1133 490.672V500H137.303V490.672H137.287Z" />
<path d="M184.774 0.000213623H165.148V27.5993H150.91V1.95502H131.654V27.5993H118.524V0.000213623H98.8978V49.1952H184.774V0.000213623ZM118.524 108.719V106.995C118.524 92.8797 125.881 82.582 141.828 82.582C157.775 82.582 165.133 93.0029 165.133 107.241V108.719H118.508H118.524ZM184.774 109.335C184.774 75.4706 165.764 60.0163 141.828 60.0163C117.892 60.0163 98.8825 75.4706 98.8825 109.335V130.315H184.758V109.335H184.774ZM148.709 165.21L109.827 182.019C102.223 185.328 97.9281 190.608 97.9281 198.212C97.9281 205.816 103.208 212.558 113.136 212.558H184.789V192.809H130.068L173.614 173.553C182.203 169.751 185.759 165.333 185.759 158.345C185.759 151.357 181.957 145.461 172.506 145.461H98.8978V165.21H148.709ZM165.271 268.711C165.271 281.964 154.85 291.045 141.843 291.045C128.837 291.045 118.416 281.964 118.416 268.711C118.416 255.457 128.837 246.376 141.843 246.376C154.85 246.376 165.271 255.457 165.271 268.711ZM186.251 268.711C186.251 243.313 166.379 222.948 141.843 222.948C117.308 222.948 97.4355 243.436 97.4355 268.711C97.4355 293.985 117.308 314.473 141.843 314.473C166.379 314.473 186.251 294.108 186.251 268.711ZM97.9127 342.703C97.9127 352.647 104.285 359.143 116.307 361.836L166.364 372.996L116.307 384.648C103.67 387.588 97.9127 393.73 97.9127 403.412C97.9127 413.602 105.147 421.329 117.785 421.329H184.774V401.334H119.262L169.443 389.928C180.11 387.481 185.759 382.078 185.759 372.996C185.759 363.914 179.863 358.527 169.443 356.187L119.386 344.904H184.774V324.786H117.785C105.147 324.786 97.9127 332.39 97.9127 342.703Z" />
</svg>
