<svg width="325" height="119" viewBox="0 0 325 119" fill="none" xmlns="http://www.w3.org/2000/svg">
<path d="M284.749 40.83C284.749 44.88 286.419 48.8801 290.359 48.8801C294.299 48.8801 295.959 44.88 295.959 40.83C295.959 36.78 294.299 32.8 290.359 32.8C286.419 32.8 284.749 36.76 284.749 40.83ZM294.249 40.83C294.249 44.63 292.889 47.31 290.359 47.31C287.829 47.31 286.439 44.64 286.439 40.83C286.439 37.02 287.819 34.3801 290.359 34.3801C292.899 34.3801 294.249 37.03 294.249 40.83ZM281.189 43.7901C281.189 45.9701 279.479 47.31 277.449 47.31C275.799 47.31 274.619 46.49 273.709 45.33L272.509 46.5101C273.709 47.9601 275.329 48.8901 277.359 48.8901C280.829 48.8901 282.879 46.49 282.879 43.8C282.879 40.48 280.479 38.75 277.879 38.75C276.429 38.75 275.249 39.3 274.699 39.93L274.939 34.68H281.729V33.08H273.409L273.029 42.0701H274.559C275.049 41.1801 276.299 40.36 277.649 40.36C279.609 40.36 281.189 41.58 281.189 43.81M264.469 41.5401C262.819 41.5401 261.059 40.2501 261.059 37.9801C261.059 35.4901 262.679 34.37 264.379 34.37C266.339 34.37 267.849 35.9701 267.849 38.1301C267.849 40.0701 266.379 41.53 264.469 41.53V41.5401ZM264.469 32.8C261.979 32.8 259.379 34.6701 259.379 37.9801C259.379 41.2901 261.869 43.1401 264.469 43.1401C265.959 43.1401 267.669 42.45 268.569 40.78C268.719 44.65 267.119 47.3 264.319 47.3C262.939 47.3 261.869 46.5901 261.199 45.6301L260.049 46.8801C260.939 47.9701 262.379 48.8801 264.319 48.8801C268.189 48.8801 270.149 45.7201 270.149 40.9801C270.149 36.2401 267.859 32.79 264.479 32.79M248.279 47.0401V48.6401H257.709V47.0401H253.949V33.0701H252.509C251.779 34.5701 249.859 35.12 248.279 35.18V36.69C249.819 36.69 251.369 36.27 252.239 35.58V47.0401H248.279Z" fill="#1D1D1B"/>
<path d="M304.14 17.3902C306.03 17.7202 307.41 18.5502 307.41 20.1902C307.41 21.9902 305.72 22.9702 303.6 22.9702C301.09 22.9702 299.55 21.8102 298.59 20.5002L297.44 21.7002C298.59 23.3202 300.75 24.5402 303.4 24.5402C306.89 24.5402 309.09 22.6302 309.09 20.1602C309.09 17.6902 307.27 16.1802 304.35 15.7102L302.81 15.4402C300.9 15.1302 299.49 14.4002 299.49 12.7002C299.49 11.1202 301.03 10.0302 303.05 10.0302C305.23 10.0302 306.54 11.0302 307.41 12.0802L308.54 10.8302C307.32 9.5002 305.65 8.4502 303.18 8.4502C300.47 8.4502 297.8 10.0002 297.8 12.7602C297.8 15.3402 299.91 16.6302 302.2 17.0302L304.11 17.3602L304.14 17.3902ZM292.89 24.3102H294.58V8.7402H292.89V24.3102ZM287.63 18.2002C287.63 20.8402 286.18 22.9702 283.42 22.9702C280.66 22.9702 279.21 20.8402 279.21 18.2202V8.7402H277.5V18.2002C277.5 21.8202 279.65 24.5502 283.42 24.5502C287.19 24.5502 289.34 21.8202 289.34 18.2002V8.7402H287.63V18.2002ZM269.99 10.3402C272.26 10.3402 273.75 11.5202 273.75 13.6702C273.75 15.9302 272.21 17.0002 269.99 17.0002H266.01V10.3402H269.99ZM269.75 18.5702C273.24 18.5702 275.44 16.6602 275.44 13.6702C275.44 10.6802 273.24 8.7402 269.75 8.7402H264.32V24.3102H266.01V18.5702H269.75ZM250.96 24.3102H261.17V22.7102H252.65V17.1702H260.93V15.5702H252.65V10.3402H261.17V8.7402H250.96V24.3102ZM239.83 10.3402C243.19 10.3402 246.33 11.9402 246.33 16.4302C246.33 20.9202 243.19 22.7202 239.85 22.7202H237.09V10.3502H239.83V10.3402ZM235.41 24.3102H239.63C243.84 24.3102 248.08 22.3302 248.08 16.4302C248.08 10.5302 243.83 8.7402 239.63 8.7402H235.41V24.3102Z" fill="#1D1D1B"/>
<path d="M186.68 43.9101C178.26 43.9101 172.49 37.2801 172.49 29.0201C172.49 20.7601 178.26 14.1301 186.68 14.1301C195.1 14.1301 200.87 20.7601 200.87 29.0201C200.87 37.2801 195.1 43.9101 186.68 43.9101ZM186.68 57.2501C202.82 57.2501 215.76 44.6201 215.76 29.0301C215.76 13.4401 202.74 0.810059 186.68 0.810059C170.62 0.810059 157.6 13.4401 157.6 29.0301C157.6 44.6201 170.54 57.2501 186.68 57.2501ZM157.07 56.3101V43.8401H141.01V1.74007H127.29V43.0601C127.29 52.8001 130.49 56.3101 140.23 56.3101H157.07ZM97.9702 14.2101H103.82C107.17 14.2101 109.12 16.3101 109.12 19.1201C109.12 21.9301 107.17 24.3401 103.82 24.3401H97.9702V14.2001V14.2101ZM97.9702 56.3101V36.6601H105.22C115.67 36.6601 123.15 28.6301 123.15 19.2001C123.15 9.77006 116.68 1.74007 105.53 1.74007H84.2502V56.3101H97.9702ZM65.4503 27.9301L80.7303 1.73006H65.2903L57.7303 15.8401L50.2502 1.73006H34.6602L49.5502 28.7801L33.8802 56.3H49.4702L57.4203 40.7801L65.0602 56.3H80.8903L65.4503 27.9201V27.9301ZM31.5002 56.3101V43.8401H13.9602V34.8H30.2502V22.5601H13.9602V14.2201H31.5002V1.75006H0.240234V56.3201H31.5002V56.3101Z" fill="#1D1D1B"/>
<path d="M324.541 117.87V105.55H307.221V96.6198H323.311V84.5298H307.221V76.2898H324.541V63.9698H293.671V117.86H324.541V117.87ZM256.961 76.2998H258.041C266.891 76.2998 273.361 80.9198 273.361 90.9298C273.361 100.94 266.821 105.56 257.891 105.56H256.971V76.3098L256.961 76.2998ZM256.581 117.87C277.831 117.87 287.531 105.94 287.531 90.9298C287.531 75.9198 277.831 63.9898 256.581 63.9898H243.421V117.88H256.581V117.87ZM221.521 95.2398L210.971 70.8398C208.891 66.0698 205.581 63.3698 200.811 63.3698C196.041 63.3698 191.801 66.6798 191.801 72.9198V117.88H204.191V83.5498L216.281 110.88C218.671 116.27 221.441 118.5 225.831 118.5C230.221 118.5 233.911 116.11 233.911 110.19V63.9998H221.521V95.2498V95.2398ZM156.581 105.63C148.271 105.63 142.571 99.0898 142.571 90.9298C142.571 82.7698 148.271 76.2298 156.581 76.2298C164.891 76.2298 170.591 82.7698 170.591 90.9298C170.591 99.0898 164.891 105.63 156.581 105.63ZM156.581 118.79C172.511 118.79 185.291 106.32 185.291 90.9198C185.291 75.5198 172.431 63.0498 156.581 63.0498C140.731 63.0498 127.871 75.5198 127.871 90.9198C127.871 106.32 140.651 118.79 156.581 118.79ZM110.141 63.3698C103.901 63.3698 99.8308 67.3698 98.1308 74.9198L91.1308 106.33L83.8208 74.9198C81.9708 66.9898 78.1208 63.3698 72.0408 63.3698C65.6508 63.3698 60.8008 67.9098 60.8008 75.8398V117.87H73.3508V76.7598L80.5108 108.24C82.0508 114.94 85.4408 118.48 91.1308 118.48C96.8208 118.48 100.211 114.78 101.681 108.24L108.761 76.8298V117.86H121.381V75.8298C121.381 67.8998 116.611 63.3598 110.141 63.3598" fill="#1D1D1B"/>
<path d="M7.82047 72.2899H8.42047C13.3805 72.2899 17.0005 74.8799 17.0005 80.4799C17.0005 86.0799 13.3304 88.6699 8.33044 88.6699H7.81046V72.2799L7.82047 72.2899ZM7.61044 95.5799C19.5104 95.5799 24.9505 88.8999 24.9505 80.4899C24.9505 72.0799 19.5204 65.3999 7.61044 65.3999H0.230469V95.5899H7.61044V95.5799Z" fill="#1D1D1B"/>
<path d="M39.6602 96.1001C46.6002 96.1001 50.6602 91.1401 50.6602 84.2401V65.3901H43.0702V85.1901C43.0702 87.3901 42.1202 89.1601 39.6602 89.1601C37.2002 89.1601 36.2502 87.3901 36.2502 85.1901V65.3901H28.6602V84.2401C28.6602 91.1401 32.7102 96.1001 39.6602 96.1001Z" fill="#1D1D1B"/>
</svg>
