<svg width="500" height="187" viewBox="0 0 500 187" fill="#162456" xmlns="http://www.w3.org/2000/svg">
<path d="M438.677 65.1118C438.677 70.7147 440.986 76.2407 446.419 76.2407C451.853 76.2407 454.162 70.7147 454.162 65.1118C454.162 59.5089 451.868 54.0137 446.419 54.0137C440.97 54.0137 438.677 59.4781 438.677 65.1118ZM451.791 65.1118C451.791 70.3607 449.914 74.0549 446.419 74.0549C442.925 74.0549 441.001 70.3607 441.001 65.1118C441.001 59.8629 442.91 56.1994 446.419 56.1994C449.929 56.1994 451.791 59.8629 451.791 65.1118ZM433.751 69.1908C433.751 72.2078 431.381 74.0549 428.595 74.0549C426.317 74.0549 424.685 72.9159 423.438 71.315L421.776 72.9467C423.438 74.9477 425.67 76.2407 428.472 76.2407C433.274 76.2407 436.091 72.9313 436.091 69.2063C436.091 64.6192 432.782 62.2334 429.18 62.2334C427.179 62.2334 425.547 63.003 424.777 63.865L425.116 56.615H434.49V54.3985H422.992L422.468 66.805H424.577C425.254 65.5736 426.978 64.4345 428.856 64.4345C431.565 64.4345 433.751 66.1277 433.751 69.2063M410.647 66.0815C408.369 66.0815 405.937 64.296 405.937 61.1559C405.937 57.7079 408.184 56.1686 410.524 56.1686C413.233 56.1686 415.326 58.3852 415.326 61.3714C415.326 64.0497 413.294 66.0815 410.647 66.0815ZM410.647 54.0137C407.199 54.0137 403.612 56.5842 403.612 61.1713C403.612 65.7583 407.045 68.2981 410.647 68.2981C412.709 68.2981 415.08 67.3437 416.311 65.0502C416.527 70.3915 414.31 74.0549 410.431 74.0549C408.523 74.0549 407.045 73.0698 406.121 71.746L404.521 73.47C405.752 74.9785 407.738 76.2407 410.416 76.2407C415.773 76.2407 418.466 71.8846 418.466 65.3273C418.466 58.77 415.311 54.0137 410.631 54.0137M388.281 73.6855V75.8867H401.303V73.6855H396.116V54.3831H394.115C393.099 56.4457 390.452 57.2153 388.281 57.3077V59.3857C390.405 59.3857 392.545 58.8008 393.746 57.8464V73.6701H388.281V73.6855Z"/>
<path d="M465.46 32.7253C468.076 33.1871 469.985 34.3261 469.985 36.6043C469.985 39.0979 467.645 40.4524 464.721 40.4524C461.242 40.4524 459.118 38.8516 457.809 37.0353L456.209 38.6977C457.809 40.945 460.78 42.6228 464.444 42.6228C469.277 42.6228 472.309 39.9906 472.309 36.5735C472.309 33.1563 469.8 31.0629 465.767 30.4318L463.643 30.0624C460.996 29.6314 459.056 28.6154 459.056 26.2757C459.056 24.09 461.18 22.5815 463.982 22.5815C466.999 22.5815 468.815 23.9668 470 25.4138L471.57 23.6898C469.877 21.8427 467.584 20.4111 464.167 20.4111C460.411 20.4111 456.732 22.5661 456.732 26.3681C456.732 29.9392 459.657 31.7094 462.812 32.2635L465.46 32.7253ZM449.913 42.2842H452.237V20.7806H449.913V42.2842ZM442.648 33.849C442.648 37.497 440.647 40.4524 436.829 40.4524C433.012 40.4524 431.011 37.5124 431.011 33.8797V20.7806H428.656V33.849C428.656 38.8516 431.626 42.6228 436.829 42.6228C442.032 42.6228 445.003 38.8516 445.003 33.849V20.7806H442.648V33.849ZM418.266 22.9817C421.406 22.9817 423.468 24.6133 423.468 27.5841C423.468 30.7089 421.344 32.1866 418.266 32.1866H412.755V22.9971H418.266V22.9817ZM417.942 34.3569C422.776 34.3569 425.808 31.7248 425.808 27.5841C425.808 23.4435 422.776 20.7806 417.942 20.7806H410.446V42.2842H412.77V34.3569H417.942ZM391.975 42.2842H406.075V40.083H394.299V32.4174H405.736V30.2163H394.299V22.9817H406.075V20.7806H391.975V42.2842ZM376.613 22.9817C381.246 22.9817 385.587 25.1983 385.587 31.3861C385.587 37.574 381.246 40.0676 376.644 40.0676H372.826V22.9817H376.613ZM370.502 42.2842H376.336C382.154 42.2842 388.019 39.5597 388.019 31.3861C388.019 23.2126 382.154 20.7652 376.336 20.7652H370.502V42.2688V42.2842Z"/>
<path d="M49.872 137.934C58.6612 137.934 63.787 131.669 63.787 122.926V99.083H54.182V124.127C54.182 126.913 52.9813 129.145 49.872 129.145C46.7627 129.145 45.5621 126.913 45.5621 124.127V99.083H35.957V122.926C35.957 131.654 41.0828 137.934 49.872 137.934Z"/>
<path d="M297.141 68.6976C283.718 68.6976 274.529 58.1382 274.529 44.9621C274.529 31.7859 283.718 21.2265 297.141 21.2265C310.563 21.2265 319.753 31.7859 319.753 44.9621C319.753 58.1382 310.563 68.6976 297.141 68.6976ZM297.141 89.9549C322.862 89.9549 343.488 69.8213 343.488 44.9775C343.488 20.1337 322.739 0 297.141 0C271.543 0 250.793 20.1337 250.793 44.9775C250.793 69.8213 271.419 89.9549 297.141 89.9549ZM249.962 88.4618V68.5899H224.364V1.49309H202.491V67.343C202.491 82.8743 207.586 88.4618 223.117 88.4618H249.947H249.962ZM155.759 21.3651H165.071C170.413 21.3651 173.522 24.7207 173.522 29.1846C173.522 33.6484 170.413 37.512 165.071 37.512H155.759V21.3651ZM155.759 88.4618V57.1531H167.319C183.974 57.1531 195.887 44.3618 195.887 29.3231C195.887 14.2844 185.574 1.49309 167.811 1.49309H133.886V88.4618H155.759ZM103.947 43.2227L128.298 1.47771H103.701L91.6481 23.9664L79.7188 1.47771H54.875L78.6105 44.5926L53.6282 88.4465H78.472L91.1402 63.7258L103.316 88.4465H128.544L103.947 43.2227ZM49.8262 88.4618V68.5899H21.8731V54.1823H47.8405V34.6797H21.8731V21.3805H49.8262V1.50848H0V88.4772H49.8262V88.4618Z"/>
<path d="M9.60508 107.826H10.3747C16.6395 107.826 21.2265 111.105 21.2265 118.185C21.2265 125.266 16.5933 128.545 10.267 128.545H9.62044V107.811L9.60508 107.826ZM9.32797 137.288C24.382 137.288 31.2626 128.837 31.2626 118.201C31.2626 107.564 24.382 99.1138 9.32797 99.1138H0V137.303H9.32797V137.288Z"/>
<path d="M500.001 184.774V165.148H472.402V150.91H498.046V131.654H472.402V118.524H500.001V98.8983H450.806V184.774H500.001ZM391.282 118.524H393.006C407.121 118.524 417.419 125.882 417.419 141.829C417.419 157.775 406.998 165.133 392.76 165.133H391.282V118.509V118.524ZM390.666 184.774C424.53 184.774 439.985 165.764 439.985 141.829C439.985 117.893 424.53 98.883 390.666 98.883H369.686V184.759H390.666V184.774ZM334.791 148.709L317.982 109.827C314.673 102.223 309.393 97.9286 301.789 97.9286C294.185 97.9286 287.443 103.208 287.443 113.137V184.79H307.192V130.069L326.448 173.614C330.25 182.204 334.668 185.759 341.656 185.759C348.644 185.759 354.54 181.957 354.54 172.506V98.8983H334.791V148.709ZM231.29 165.272C218.037 165.272 208.956 154.851 208.956 141.844C208.956 128.837 218.037 118.416 231.29 118.416C244.544 118.416 253.625 128.837 253.625 141.844C253.625 154.851 244.544 165.272 231.29 165.272ZM231.29 186.252C256.688 186.252 277.053 166.38 277.053 141.844C277.053 117.308 256.565 97.436 231.29 97.436C206.016 97.436 185.528 117.308 185.528 141.844C185.528 166.38 205.893 186.252 231.29 186.252ZM157.298 97.9132C147.354 97.9132 140.858 104.286 138.165 116.307L127.005 166.365L115.353 116.307C112.413 103.67 106.271 97.9132 96.589 97.9132C86.399 97.9132 78.6719 105.148 78.6719 117.785V184.774H98.667V119.263L110.073 169.443C112.52 180.11 117.923 185.759 127.005 185.759C136.087 185.759 141.474 179.864 143.814 169.443L155.097 119.386V184.774H175.215V117.785C175.215 105.148 167.611 97.9132 157.298 97.9132Z"/>
</svg>
